$ ./calculate_qoe_metrics.sh -p=test --game --align_ocr --only_vmaf --no_cleanup
*** Calculating QoE metrics ***
Copying test-presenter.webm to current folder
Copying test-viewer.webm to current folder
Remuxing test-presenter.webm to test-p.webm
ffmpeg version 4.4.2-0ubuntu0.22.04.1 Copyright (c) 2000-2021 the FFmpeg developers
  built with gcc 11 (Ubuntu 11.2.0-19ubuntu1)
  configuration: --prefix=/usr --extra-version=0ubuntu0.22.04.1 --toolchain=hardened --libdir=/usr/lib/x86_64-linux-gnu --incdir=/usr/include/x86_64-linux-gnu --arch=amd64 --enable-gpl --disable-stripping --enable-gnutls --enable-ladspa --enable-libaom --enable-libass --enable-libbluray --enable-libbs2b --enable-libcaca --enable-libcdio --enable-libcodec2 --enable-libdav1d --enable-libflite --enable-libfontconfig --enable-libfreetype --enable-libfribidi --enable-libgme --enable-libgsm --enable-libjack --enable-libmp3lame --enable-libmysofa --enable-libopenjpeg --enable-libopenmpt --enable-libopus --enable-libpulse --enable-librabbitmq --enable-librubberband --enable-libshine --enable-libsnappy --enable-libsoxr --enable-libspeex --enable-libsrt --enable-libssh --enable-libtheora --enable-libtwolame --enable-libvidstab --enable-libvorbis --enable-libvpx --enable-libwebp --enable-libx265 --enable-libxml2 --enable-libxvid --enable-libzimg --enable-libzmq --enable-libzvbi --enable-lv2 --enable-omx --enable-openal --enable-opencl --enable-opengl --enable-sdl2 --enable-pocketsphinx --enable-librsvg --enable-libmfx --enable-libdc1394 --enable-libdrm --enable-libiec61883 --enable-chromaprint --enable-frei0r --enable-libx264 --enable-shared
  libavutil      56. 70.100 / 56. 70.100
  libavcodec     58.134.100 / 58.134.100
  libavformat    58. 76.100 / 58. 76.100
  libavdevice    58. 13.100 / 58. 13.100
  libavfilter     7.110.100 /  7.110.100
  libswscale      5.  9.100 /  5.  9.100
  libswresample   3.  9.100 /  3.  9.100
  libpostproc    55.  9.100 / 55.  9.100
Input #0, matroska,webm, from 'test-presenter.webm':
  Metadata:
    encoder         : Chrome
  Duration: N/A, start: 0.000000, bitrate: N/A
  Stream #0:0(eng): Audio: opus, 48000 Hz, mono, fltp (default)
  Stream #0:1(eng): Video: vp8, yuv420p(tv, bt709, progressive), 320x180, SAR 1:1 DAR 16:9, 1k tbr, 1k tbn, 1k tbc (default)
    Metadata:
      alpha_mode      : 1
Stream mapping:
  Stream #0:1 -> #0:0 (vp8 (native) -> vp8 (libvpx))
  Stream #0:0 -> #0:1 (opus (native) -> opus (libopus))
Press [q] to stop, [?] for help
[libopus @ 0x55ea7dac55c0] No bit rate set. Defaulting to 64000 bps.
[libvpx @ 0x55ea7da7de80] v1.11.0
Output #0, webm, to 'test-remux-p.webm':
  Metadata:
    encoder         : Lavf58.76.100
  Stream #0:0(eng): Video: vp8, yuv420p(tv, bt470bg/bt709/bt709, progressive), 1280x720 [SAR 1:1 DAR 16:9], q=2-31, 3000 kb/s, 1k fps, 1k tbn (default)
    Metadata:
      alpha_mode      : 1
      encoder         : Lavc58.134.100 libvpx
    Side data:
      cpb: bitrate max/min/avg: 0/0/0 buffer size: 0 vbv_delay: N/A
  Stream #0:1(eng): Audio: opus, 48000 Hz, mono, flt, 64 kb/s (default)
    Metadata:
      encoder         : Lavc58.134.100 libopus
[libopus @ 0x55ea7dac55c0] Queue input is backward in time bitrate=  13.2kbits/s speed=0.883x    
    Last message repeated 1 times
[libopus @ 0x55ea7dac55c0] Queue input is backward in time bitrate=   6.4kbits/s speed=0.601x    
[libopus @ 0x55ea7dac55c0] Queue input is backward in time bitrate=   4.6kbits/s speed=0.493x    
[libopus @ 0x55ea7dac55c0] Queue input is backward in time bitrate=   3.4kbits/s speed=0.474x    
    Last message repeated 8 times
[libopus @ 0x55ea7dac55c0] Queue input is backward in time bitrate=   1.0kbits/s speed=1.44x    
    Last message repeated 6 times
[libopus @ 0x55ea7dac55c0] Queue input is backward in time bitrate=   0.6kbits/s speed=2.01x    
    Last message repeated 15 times
[libopus @ 0x55ea7dac55c0] Queue input is backward in time bitrate= 229.3kbits/s speed=3.39x    
    Last message repeated 1 times
[libopus @ 0x55ea7dac55c0] Queue input is backward in time bitrate= 219.2kbits/s speed= 3.2x    
    Last message repeated 1 times
[libopus @ 0x55ea7dac55c0] Queue input is backward in time bitrate= 312.2kbits/s speed=3.06x    
    Last message repeated 1 times
[libopus @ 0x55ea7dac55c0] Queue input is backward in time bitrate= 294.6kbits/s speed=2.99x    
    Last message repeated 2 times
[libopus @ 0x55ea7dac55c0] Queue input is backward in time bitrate= 275.3kbits/s speed=2.94x    
    Last message repeated 3 times
[libopus @ 0x55ea7dac55c0] Queue input is backward in time bitrate= 519.3kbits/s speed=2.89x    
[libopus @ 0x55ea7dac55c0] Queue input is backward in time bitrate= 591.0kbits/s speed=2.75x    
    Last message repeated 1 times
[libopus @ 0x55ea7dac55c0] Queue input is backward in time bitrate= 571.8kbits/s speed=2.68x    
    Last message repeated 1 times
[libopus @ 0x55ea7dac55c0] Queue input is backward in time bitrate= 551.2kbits/s speed=2.62x    
    Last message repeated 3 times
[libopus @ 0x55ea7dac55c0] Queue input is backward in time bitrate= 527.5kbits/s speed= 2.6x    
    Last message repeated 12 times
frame=   89 fps=7.2 q=0.0 Lsize=    3509kB time=00:00:40.03 bitrate= 718.1kbits/s speed=3.23x    
video:3145kB audio:349kB subtitle:0kB other streams:0kB global headers:0kB muxing overhead: 0.430683%
ffmpeg version 4.4.2-0ubuntu0.22.04.1 Copyright (c) 2000-2021 the FFmpeg developers
  built with gcc 11 (Ubuntu 11.2.0-19ubuntu1)
  configuration: --prefix=/usr --extra-version=0ubuntu0.22.04.1 --toolchain=hardened --libdir=/usr/lib/x86_64-linux-gnu --incdir=/usr/include/x86_64-linux-gnu --arch=amd64 --enable-gpl --disable-stripping --enable-gnutls --enable-ladspa --enable-libaom --enable-libass --enable-libbluray --enable-libbs2b --enable-libcaca --enable-libcdio --enable-libcodec2 --enable-libdav1d --enable-libflite --enable-libfontconfig --enable-libfreetype --enable-libfribidi --enable-libgme --enable-libgsm --enable-libjack --enable-libmp3lame --enable-libmysofa --enable-libopenjpeg --enable-libopenmpt --enable-libopus --enable-libpulse --enable-librabbitmq --enable-librubberband --enable-libshine --enable-libsnappy --enable-libsoxr --enable-libspeex --enable-libsrt --enable-libssh --enable-libtheora --enable-libtwolame --enable-libvidstab --enable-libvorbis --enable-libvpx --enable-libwebp --enable-libx265 --enable-libxml2 --enable-libxvid --enable-libzimg --enable-libzmq --enable-libzvbi --enable-lv2 --enable-omx --enable-openal --enable-opencl --enable-opengl --enable-sdl2 --enable-pocketsphinx --enable-librsvg --enable-libmfx --enable-libdc1394 --enable-libdrm --enable-libiec61883 --enable-chromaprint --enable-frei0r --enable-libx264 --enable-shared
  libavutil      56. 70.100 / 56. 70.100
  libavcodec     58.134.100 / 58.134.100
  libavformat    58. 76.100 / 58. 76.100
  libavdevice    58. 13.100 / 58. 13.100
  libavfilter     7.110.100 /  7.110.100
  libswscale      5.  9.100 /  5.  9.100
  libswresample   3.  9.100 /  3.  9.100
  libpostproc    55.  9.100 / 55.  9.100
Input #0, matroska,webm, from 'test-remux-p.webm':
  Metadata:
    ENCODER         : Lavf58.76.100
  Duration: 00:00:40.05, start: -0.007000, bitrate: 717 kb/s
  Stream #0:0(eng): Video: vp8, yuv420p(tv, bt470bg/bt709/bt709, progressive), 1280x720, SAR 1:1 DAR 16:9, 1k tbr, 1k tbn, 1k tbc (default)
    Metadata:
      ALPHA_MODE      : 1
      ENCODER         : Lavc58.134.100 libvpx
      DURATION        : 00:00:35.192000000
  Stream #0:1(eng): Audio: opus, 48000 Hz, mono, fltp (default)
    Metadata:
      ENCODER         : Lavc58.134.100 libopus
      DURATION        : 00:00:40.045000000
Stream mapping:
  Stream #0:0 -> #0:0 (vp8 (native) -> vp9 (libvpx-vp9))
  Stream #0:1 -> #0:1 (opus (native) -> opus (libopus))
Press [q] to stop, [?] for help
[libopus @ 0x5611f8783000] No bit rate set. Defaulting to 64000 bps.
[libvpx-vp9 @ 0x5611f87b7800] v1.11.0
[libvpx-vp9 @ 0x5611f87b7800] Neither bitrate nor constrained quality specified, using default CRF of 32
Output #0, webm, to 'test-p.webm':
  Metadata:
    encoder         : Lavf58.76.100
  Stream #0:0(eng): Video: vp9, yuv420p(tv, bt470bg/bt709/bt709, progressive), 1280x720 [SAR 1:1 DAR 16:9], q=2-31, 24 fps, 1k tbn (default)
    Metadata:
      ALPHA_MODE      : 1
      DURATION        : 00:00:35.192000000
      encoder         : Lavc58.134.100 libvpx-vp9
    Side data:
      cpb: bitrate max/min/avg: 0/0/0 buffer size: 0 vbv_delay: N/A
  Stream #0:1(eng): Audio: opus, 48000 Hz, mono, flt, 64 kb/s (default)
    Metadata:
      DURATION        : 00:00:40.045000000
      encoder         : Lavc58.134.100 libopus
[libopus @ 0x5611f8783000] Queue input is backward in time bitrate=  13.2kbits/s speed=  50x    
    Last message repeated 11 times
[libopus @ 0x5611f8783000] Queue input is backward in time bitrate=   1.1kbits/s speed=10.7x    
    Last message repeated 8 times
[libopus @ 0x5611f8783000] Queue input is backward in time bitrate=   0.6kbits/s speed=2.16x    
    Last message repeated 14 times
[libopus @ 0x5611f8783000] Queue input is backward in time bitrate=  48.5kbits/s speed=2.45x    
[libopus @ 0x5611f8783000] Queue input is backward in time bitrate=  47.5kbits/s speed=2.29x    
    Last message repeated 1 times
[libopus @ 0x5611f8783000] Queue input is backward in time bitrate=  45.9kbits/s speed=2.18x    
[out_0_0 @ 0x5611f88af400] 100 buffers queued in out_0_0, something may be wrong.speed=2.06x    
[libopus @ 0x5611f8783000] Queue input is backward in time bitrate= 102.3kbits/s speed=1.55x    
    Last message repeated 1 times
[libopus @ 0x5611f8783000] Queue input is backward in time bitrate=  98.5kbits/s speed=1.55x    
    Last message repeated 1 times
[libopus @ 0x5611f8783000] Queue input is backward in time bitrate=  94.4kbits/s speed=1.55x    
[libopus @ 0x5611f8783000] Queue input is backward in time bitrate=  92.0kbits/s speed=1.51x    
[libopus @ 0x5611f8783000] Queue input is backward in time bitrate=  89.3kbits/s speed=1.49x    
    Last message repeated 1 times
[libopus @ 0x5611f8783000] Queue input is backward in time bitrate=  86.7kbits/s speed=1.48x    
    Last message repeated 1 times
[libopus @ 0x5611f8783000] Queue input is backward in time bitrate= 169.2kbits/s speed=1.42x    
[libopus @ 0x5611f8783000] Queue input is backward in time bitrate= 166.0kbits/s speed= 1.4x    
[libopus @ 0x5611f8783000] Queue input is backward in time bitrate= 162.8kbits/s speed=1.38x    
    Last message repeated 2 times
[libopus @ 0x5611f8783000] Queue input is backward in time bitrate= 156.1kbits/s speed= 1.4x    
    Last message repeated 1 times
[libopus @ 0x5611f8783000] Queue input is backward in time bitrate= 152.7kbits/s speed=1.39x    
    Last message repeated 8 times
[libopus @ 0x5611f8783000] Queue input is backward in time bitrate= 120.3kbits/s speed=1.71x    
    Last message repeated 3 times
frame=  836 fps= 30 q=0.0 Lsize=    1087kB time=00:00:40.03 bitrate= 222.5kbits/s speed=1.42x    
video:722kB audio:346kB subtitle:0kB other streams:0kB global headers:0kB muxing overhead: 1.830094%
Remuxing test-viewer.webm to test-v.webm
ffmpeg version 4.4.2-0ubuntu0.22.04.1 Copyright (c) 2000-2021 the FFmpeg developers
  built with gcc 11 (Ubuntu 11.2.0-19ubuntu1)
  configuration: --prefix=/usr --extra-version=0ubuntu0.22.04.1 --toolchain=hardened --libdir=/usr/lib/x86_64-linux-gnu --incdir=/usr/include/x86_64-linux-gnu --arch=amd64 --enable-gpl --disable-stripping --enable-gnutls --enable-ladspa --enable-libaom --enable-libass --enable-libbluray --enable-libbs2b --enable-libcaca --enable-libcdio --enable-libcodec2 --enable-libdav1d --enable-libflite --enable-libfontconfig --enable-libfreetype --enable-libfribidi --enable-libgme --enable-libgsm --enable-libjack --enable-libmp3lame --enable-libmysofa --enable-libopenjpeg --enable-libopenmpt --enable-libopus --enable-libpulse --enable-librabbitmq --enable-librubberband --enable-libshine --enable-libsnappy --enable-libsoxr --enable-libspeex --enable-libsrt --enable-libssh --enable-libtheora --enable-libtwolame --enable-libvidstab --enable-libvorbis --enable-libvpx --enable-libwebp --enable-libx265 --enable-libxml2 --enable-libxvid --enable-libzimg --enable-libzmq --enable-libzvbi --enable-lv2 --enable-omx --enable-openal --enable-opencl --enable-opengl --enable-sdl2 --enable-pocketsphinx --enable-librsvg --enable-libmfx --enable-libdc1394 --enable-libdrm --enable-libiec61883 --enable-chromaprint --enable-frei0r --enable-libx264 --enable-shared
  libavutil      56. 70.100 / 56. 70.100
  libavcodec     58.134.100 / 58.134.100
  libavformat    58. 76.100 / 58. 76.100
  libavdevice    58. 13.100 / 58. 13.100
  libavfilter     7.110.100 /  7.110.100
  libswscale      5.  9.100 /  5.  9.100
  libswresample   3.  9.100 /  3.  9.100
  libpostproc    55.  9.100 / 55.  9.100
Input #0, matroska,webm, from 'test-viewer.webm':
  Metadata:
    encoder         : Chrome
  Duration: N/A, start: 0.000000, bitrate: N/A
  Stream #0:0(eng): Audio: opus, 48000 Hz, mono, fltp (default)
  Stream #0:1(eng): Video: vp8, yuv420p(tv, bt709, progressive), 320x180, SAR 1:1 DAR 16:9, 1k tbr, 1k tbn, 1k tbc (default)
    Metadata:
      alpha_mode      : 1
Stream mapping:
  Stream #0:1 -> #0:0 (vp8 (native) -> vp8 (libvpx))
  Stream #0:0 -> #0:1 (opus (native) -> opus (libopus))
Press [q] to stop, [?] for help
[libopus @ 0x558dfdf6b5c0] No bit rate set. Defaulting to 64000 bps.
[libvpx @ 0x558dfdf23e80] v1.11.0
Output #0, webm, to 'test-remux-v.webm':
  Metadata:
    encoder         : Lavf58.76.100
  Stream #0:0(eng): Video: vp8, yuv420p(tv, bt470bg/bt709/bt709, progressive), 1280x720 [SAR 1:1 DAR 16:9], q=2-31, 3000 kb/s, 1k fps, 1k tbn (default)
    Metadata:
      alpha_mode      : 1
      encoder         : Lavc58.134.100 libvpx
    Side data:
      cpb: bitrate max/min/avg: 0/0/0 buffer size: 0 vbv_delay: N/A
  Stream #0:1(eng): Audio: opus, 48000 Hz, mono, flt, 64 kb/s (default)
    Metadata:
      encoder         : Lavc58.134.100 libopus
[libopus @ 0x558dfdf6b5c0] Queue input is backward in time bitrate=  13.2kbits/s speed=0.593x    
    Last message repeated 1 times
[libopus @ 0x558dfdf6b5c0] Queue input is backward in time bitrate=   6.4kbits/s speed=0.488x    
[libopus @ 0x558dfdf6b5c0] Queue input is backward in time bitrate=   5.4kbits/s speed=0.45x    
[libopus @ 0x558dfdf6b5c0] Queue input is backward in time bitrate=   3.4kbits/s speed=0.437x    
    Last message repeated 11 times
[libopus @ 0x558dfdf6b5c0] Queue input is backward in time bitrate=   0.8kbits/s speed=1.57x    
    Last message repeated 4 times
[libopus @ 0x558dfdf6b5c0] Queue input is backward in time bitrate= 196.7kbits/s speed=2.05x    
    Last message repeated 14 times
[libopus @ 0x558dfdf6b5c0] Queue input is backward in time bitrate= 221.3kbits/s speed=   3x    
    Last message repeated 3 times
[libopus @ 0x558dfdf6b5c0] Queue input is backward in time bitrate= 312.2kbits/s speed=2.94x    
    Last message repeated 1 times
[libopus @ 0x558dfdf6b5c0] Queue input is backward in time bitrate= 294.6kbits/s speed=2.88x    
    Last message repeated 2 times
[libopus @ 0x558dfdf6b5c0] Queue input is backward in time bitrate= 276.1kbits/s speed=2.88x    
    Last message repeated 1 times
[libopus @ 0x558dfdf6b5c0] Queue input is backward in time bitrate= 264.8kbits/s speed=2.79x    
    Last message repeated 2 times
[libopus @ 0x558dfdf6b5c0] Queue input is backward in time bitrate= 510.5kbits/s speed=2.71x    
[libopus @ 0x558dfdf6b5c0] Queue input is backward in time bitrate= 579.9kbits/s speed=2.63x    
    Last message repeated 1 times
[libopus @ 0x558dfdf6b5c0] Queue input is backward in time bitrate= 564.0kbits/s speed=2.54x    
    Last message repeated 1 times
[libopus @ 0x558dfdf6b5c0] Queue input is backward in time bitrate= 540.2kbits/s speed= 2.5x    
    Last message repeated 11 times
[libopus @ 0x558dfdf6b5c0] Queue input is backward in time bitrate= 420.5kbits/s speed=3.05x    
    Last message repeated 3 times
frame=   89 fps=7.0 q=0.0 Lsize=    3509kB time=00:00:40.03 bitrate= 718.1kbits/s speed=3.15x    
video:3145kB audio:349kB subtitle:0kB other streams:0kB global headers:0kB muxing overhead: 0.430683%
ffmpeg version 4.4.2-0ubuntu0.22.04.1 Copyright (c) 2000-2021 the FFmpeg developers
  built with gcc 11 (Ubuntu 11.2.0-19ubuntu1)
  configuration: --prefix=/usr --extra-version=0ubuntu0.22.04.1 --toolchain=hardened --libdir=/usr/lib/x86_64-linux-gnu --incdir=/usr/include/x86_64-linux-gnu --arch=amd64 --enable-gpl --disable-stripping --enable-gnutls --enable-ladspa --enable-libaom --enable-libass --enable-libbluray --enable-libbs2b --enable-libcaca --enable-libcdio --enable-libcodec2 --enable-libdav1d --enable-libflite --enable-libfontconfig --enable-libfreetype --enable-libfribidi --enable-libgme --enable-libgsm --enable-libjack --enable-libmp3lame --enable-libmysofa --enable-libopenjpeg --enable-libopenmpt --enable-libopus --enable-libpulse --enable-librabbitmq --enable-librubberband --enable-libshine --enable-libsnappy --enable-libsoxr --enable-libspeex --enable-libsrt --enable-libssh --enable-libtheora --enable-libtwolame --enable-libvidstab --enable-libvorbis --enable-libvpx --enable-libwebp --enable-libx265 --enable-libxml2 --enable-libxvid --enable-libzimg --enable-libzmq --enable-libzvbi --enable-lv2 --enable-omx --enable-openal --enable-opencl --enable-opengl --enable-sdl2 --enable-pocketsphinx --enable-librsvg --enable-libmfx --enable-libdc1394 --enable-libdrm --enable-libiec61883 --enable-chromaprint --enable-frei0r --enable-libx264 --enable-shared
  libavutil      56. 70.100 / 56. 70.100
  libavcodec     58.134.100 / 58.134.100
  libavformat    58. 76.100 / 58. 76.100
  libavdevice    58. 13.100 / 58. 13.100
  libavfilter     7.110.100 /  7.110.100
  libswscale      5.  9.100 /  5.  9.100
  libswresample   3.  9.100 /  3.  9.100
  libpostproc    55.  9.100 / 55.  9.100
Input #0, matroska,webm, from 'test-remux-v.webm':
  Metadata:
    ENCODER         : Lavf58.76.100
  Duration: 00:00:40.05, start: -0.007000, bitrate: 717 kb/s
  Stream #0:0(eng): Video: vp8, yuv420p(tv, bt470bg/bt709/bt709, progressive), 1280x720, SAR 1:1 DAR 16:9, 1k tbr, 1k tbn, 1k tbc (default)
    Metadata:
      ALPHA_MODE      : 1
      ENCODER         : Lavc58.134.100 libvpx
      DURATION        : 00:00:35.192000000
  Stream #0:1(eng): Audio: opus, 48000 Hz, mono, fltp (default)
    Metadata:
      ENCODER         : Lavc58.134.100 libopus
      DURATION        : 00:00:40.045000000
Stream mapping:
  Stream #0:0 -> #0:0 (vp8 (native) -> vp9 (libvpx-vp9))
  Stream #0:1 -> #0:1 (opus (native) -> opus (libopus))
Press [q] to stop, [?] for help
[libopus @ 0x564d28e9e000] No bit rate set. Defaulting to 64000 bps.
[libvpx-vp9 @ 0x564d28ed2800] v1.11.0
[libvpx-vp9 @ 0x564d28ed2800] Neither bitrate nor constrained quality specified, using default CRF of 32
Output #0, webm, to 'test-v.webm':
  Metadata:
    encoder         : Lavf58.76.100
  Stream #0:0(eng): Video: vp9, yuv420p(tv, bt470bg/bt709/bt709, progressive), 1280x720 [SAR 1:1 DAR 16:9], q=2-31, 24 fps, 1k tbn (default)
    Metadata:
      ALPHA_MODE      : 1
      DURATION        : 00:00:35.192000000
      encoder         : Lavc58.134.100 libvpx-vp9
    Side data:
      cpb: bitrate max/min/avg: 0/0/0 buffer size: 0 vbv_delay: N/A
  Stream #0:1(eng): Audio: opus, 48000 Hz, mono, flt, 64 kb/s (default)
    Metadata:
      DURATION        : 00:00:40.045000000
      encoder         : Lavc58.134.100 libopus
[libopus @ 0x564d28e9e000] Queue input is backward in time bitrate=  13.2kbits/s speed=43.7x    
    Last message repeated 12 times
[libopus @ 0x564d28e9e000] Queue input is backward in time bitrate=   1.0kbits/s speed=10.7x    
    Last message repeated 7 times
[libopus @ 0x564d28e9e000] Queue input is backward in time bitrate=   0.6kbits/s speed=2.25x    
    Last message repeated 14 times
[libopus @ 0x564d28e9e000] Queue input is backward in time bitrate=  48.5kbits/s speed=2.64x    
[libopus @ 0x564d28e9e000] Queue input is backward in time bitrate=  47.5kbits/s speed=2.43x    
    Last message repeated 1 times
[libopus @ 0x564d28e9e000] Queue input is backward in time bitrate=  45.9kbits/s speed=2.31x    
[out_0_0 @ 0x564d28fca400] 100 buffers queued in out_0_0, something may be wrong.speed=2.16x    
[libopus @ 0x564d28e9e000] Queue input is backward in time bitrate= 102.3kbits/s speed=1.58x    
    Last message repeated 1 times
[libopus @ 0x564d28e9e000] Queue input is backward in time bitrate=  98.5kbits/s speed=1.58x    
    Last message repeated 1 times
[libopus @ 0x564d28e9e000] Queue input is backward in time bitrate=  94.4kbits/s speed=1.58x    
[libopus @ 0x564d28e9e000] Queue input is backward in time bitrate=  92.0kbits/s speed=1.54x    
[libopus @ 0x564d28e9e000] Queue input is backward in time bitrate=  89.3kbits/s speed=1.52x    
    Last message repeated 1 times
[libopus @ 0x564d28e9e000] Queue input is backward in time bitrate=  86.7kbits/s speed=1.51x    
    Last message repeated 1 times
[libopus @ 0x564d28e9e000] Queue input is backward in time bitrate= 169.2kbits/s speed=1.45x    
[libopus @ 0x564d28e9e000] Queue input is backward in time bitrate= 166.0kbits/s speed=1.42x    
[libopus @ 0x564d28e9e000] Queue input is backward in time bitrate= 162.8kbits/s speed= 1.4x    
    Last message repeated 2 times
[libopus @ 0x564d28e9e000] Queue input is backward in time bitrate= 156.1kbits/s speed=1.42x    
    Last message repeated 2 times
[libopus @ 0x564d28e9e000] Queue input is backward in time bitrate= 151.0kbits/s speed=1.41x    
    Last message repeated 7 times
[libopus @ 0x564d28e9e000] Queue input is backward in time bitrate= 119.2kbits/s speed=1.74x    
    Last message repeated 3 times
frame=  836 fps= 29 q=0.0 Lsize=    1087kB time=00:00:40.03 bitrate= 222.5kbits/s speed= 1.4x    
video:722kB audio:346kB subtitle:0kB other streams:0kB global headers:0kB muxing overhead: 1.830094%
Checking padding in test-p.webm (result: test-p-cut.webm)
ffmpeg version 4.4.2-0ubuntu0.22.04.1 Copyright (c) 2000-2021 the FFmpeg developers
  built with gcc 11 (Ubuntu 11.2.0-19ubuntu1)
  configuration: --prefix=/usr --extra-version=0ubuntu0.22.04.1 --toolchain=hardened --libdir=/usr/lib/x86_64-linux-gnu --incdir=/usr/include/x86_64-linux-gnu --arch=amd64 --enable-gpl --disable-stripping --enable-gnutls --enable-ladspa --enable-libaom --enable-libass --enable-libbluray --enable-libbs2b --enable-libcaca --enable-libcdio --enable-libcodec2 --enable-libdav1d --enable-libflite --enable-libfontconfig --enable-libfreetype --enable-libfribidi --enable-libgme --enable-libgsm --enable-libjack --enable-libmp3lame --enable-libmysofa --enable-libopenjpeg --enable-libopenmpt --enable-libopus --enable-libpulse --enable-librabbitmq --enable-librubberband --enable-libshine --enable-libsnappy --enable-libsoxr --enable-libspeex --enable-libsrt --enable-libssh --enable-libtheora --enable-libtwolame --enable-libvidstab --enable-libvorbis --enable-libvpx --enable-libwebp --enable-libx265 --enable-libxml2 --enable-libxvid --enable-libzimg --enable-libzmq --enable-libzvbi --enable-lv2 --enable-omx --enable-openal --enable-opencl --enable-opengl --enable-sdl2 --enable-pocketsphinx --enable-librsvg --enable-libmfx --enable-libdc1394 --enable-libdrm --enable-libiec61883 --enable-chromaprint --enable-frei0r --enable-libx264 --enable-shared
  libavutil      56. 70.100 / 56. 70.100
  libavcodec     58.134.100 / 58.134.100
  libavformat    58. 76.100 / 58. 76.100
  libavdevice    58. 13.100 / 58. 13.100
  libavfilter     7.110.100 /  7.110.100
  libswscale      5.  9.100 /  5.  9.100
  libswresample   3.  9.100 /  3.  9.100
  libpostproc    55.  9.100 / 55.  9.100
Input #0, matroska,webm, from 'test-p.webm':
  Metadata:
    ENCODER         : Lavf58.76.100
  Duration: 00:00:40.05, start: -0.006000, bitrate: 222 kb/s
  Stream #0:0(eng): Video: vp9 (Profile 0), yuv420p(tv, bt470bg/bt709/bt709, progressive), 1280x720, SAR 1:1 DAR 16:9, 24 fps, 24 tbr, 1k tbn, 1k tbc (default)
    Metadata:
      ALPHA_MODE      : 1
      ENCODER         : Lavc58.134.100 libvpx-vp9
      DURATION        : 00:00:34.917000000
  Stream #0:1(eng): Audio: opus, 48000 Hz, mono, fltp (default)
    Metadata:
      ENCODER         : Lavc58.134.100 libopus
      DURATION        : 00:00:40.045000000
Stream mapping:
  Stream #0:0 -> #0:0 (vp9 (native) -> mjpeg (native))
Press [q] to stop, [?] for help
[swscaler @ 0x564d3ae7bcc0] deprecated pixel format used, make sure you did set range correctly
Output #0, image2, to 'jpg/%04d-p.jpg':
  Metadata:
    encoder         : Lavf58.76.100
  Stream #0:0(eng): Video: mjpeg, yuvj420p(pc, bt470bg/bt709/bt709, progressive), 1280x720 [SAR 1:1 DAR 16:9], q=2-31, 200 kb/s, 24 fps, 24 tbn (default)
    Metadata:
      ALPHA_MODE      : 1
      DURATION        : 00:00:34.917000000
      encoder         : Lavc58.134.100 mjpeg
    Side data:
      cpb: bitrate max/min/avg: 0/0/200000 buffer size: 0 vbv_delay: N/A
frame=  838 fps=283 q=24.8 Lsize=N/A time=00:00:34.91 bitrate=N/A dup=2 drop=0 speed=11.8x    
video:14402kB audio:0kB subtitle:0kB other streams:0kB global headers:0kB muxing overhead: unknown
Cutting test-p.webm from frame 0165 to 0838
ffmpeg version 4.4.2-0ubuntu0.22.04.1 Copyright (c) 2000-2021 the FFmpeg developers
  built with gcc 11 (Ubuntu 11.2.0-19ubuntu1)
  configuration: --prefix=/usr --extra-version=0ubuntu0.22.04.1 --toolchain=hardened --libdir=/usr/lib/x86_64-linux-gnu --incdir=/usr/include/x86_64-linux-gnu --arch=amd64 --enable-gpl --disable-stripping --enable-gnutls --enable-ladspa --enable-libaom --enable-libass --enable-libbluray --enable-libbs2b --enable-libcaca --enable-libcdio --enable-libcodec2 --enable-libdav1d --enable-libflite --enable-libfontconfig --enable-libfreetype --enable-libfribidi --enable-libgme --enable-libgsm --enable-libjack --enable-libmp3lame --enable-libmysofa --enable-libopenjpeg --enable-libopenmpt --enable-libopus --enable-libpulse --enable-librabbitmq --enable-librubberband --enable-libshine --enable-libsnappy --enable-libsoxr --enable-libspeex --enable-libsrt --enable-libssh --enable-libtheora --enable-libtwolame --enable-libvidstab --enable-libvorbis --enable-libvpx --enable-libwebp --enable-libx265 --enable-libxml2 --enable-libxvid --enable-libzimg --enable-libzmq --enable-libzvbi --enable-lv2 --enable-omx --enable-openal --enable-opencl --enable-opengl --enable-sdl2 --enable-pocketsphinx --enable-librsvg --enable-libmfx --enable-libdc1394 --enable-libdrm --enable-libiec61883 --enable-chromaprint --enable-frei0r --enable-libx264 --enable-shared
  libavutil      56. 70.100 / 56. 70.100
  libavcodec     58.134.100 / 58.134.100
  libavformat    58. 76.100 / 58. 76.100
  libavdevice    58. 13.100 / 58. 13.100
  libavfilter     7.110.100 /  7.110.100
  libswscale      5.  9.100 /  5.  9.100
  libswresample   3.  9.100 /  3.  9.100
  libpostproc    55.  9.100 / 55.  9.100
Input #0, matroska,webm, from 'test-p.webm':
  Metadata:
    ENCODER         : Lavf58.76.100
  Duration: 00:00:40.05, start: -0.006000, bitrate: 222 kb/s
  Stream #0:0(eng): Video: vp9 (Profile 0), yuv420p(tv, bt470bg/bt709/bt709, progressive), 1280x720, SAR 1:1 DAR 16:9, 24 fps, 24 tbr, 1k tbn, 1k tbc (default)
    Metadata:
      ALPHA_MODE      : 1
      ENCODER         : Lavc58.134.100 libvpx-vp9
      DURATION        : 00:00:34.917000000
  Stream #0:1(eng): Audio: opus, 48000 Hz, mono, fltp (default)
    Metadata:
      ENCODER         : Lavc58.134.100 libopus
      DURATION        : 00:00:40.045000000
Stream mapping:
  Stream #0:0 -> #0:0 (vp9 (native) -> vp8 (libvpx))
  Stream #0:1 -> #0:1 (opus (native) -> opus (libopus))
Press [q] to stop, [?] for help
[libopus @ 0x55e1bf550400] No bit rate set. Defaulting to 64000 bps.
[libvpx @ 0x55e1bf511f40] v1.11.0
Output #0, webm, to 'test-p-cut.webm':
  Metadata:
    encoder         : Lavf58.76.100
  Stream #0:0(eng): Video: vp8, yuv420p(tv, bt470bg/bt709/bt709, progressive), 1280x720 [SAR 1:1 DAR 16:9], q=2-31, 3000 kb/s, 24 fps, 1k tbn (default)
    Metadata:
      ALPHA_MODE      : 1
      DURATION        : 00:00:34.917000000
      encoder         : Lavc58.134.100 libvpx
    Side data:
      cpb: bitrate max/min/avg: 0/0/0 buffer size: 0 vbv_delay: N/A
  Stream #0:1(eng): Audio: opus, 48000 Hz, mono, flt, 64 kb/s (default)
    Metadata:
      DURATION        : 00:00:40.045000000
      encoder         : Lavc58.134.100 libopus
[libopus @ 0x55e1bf550400] Queue input is backward in time bitrate=  20.3kbits/s speed=4.81x    
[libopus @ 0x55e1bf550400] Queue input is backward in time bitrate=  10.4kbits/s speed=0.461x    
[libopus @ 0x55e1bf550400] Queue input is backward in time bitrate= 782.3kbits/s speed=0.348x    
[libopus @ 0x55e1bf550400] Queue input is backward in time bitrate= 635.5kbits/s speed=0.339x    
[libopus @ 0x55e1bf550400] Queue input is backward in time bitrate= 839.5kbits/s speed=0.34x     
[libopus @ 0x55e1bf550400] Queue input is backward in time bitrate= 648.3kbits/s speed=0.349x    
[libopus @ 0x55e1bf550400] Queue input is backward in time bitrate= 586.1kbits/s speed=0.363x    
    Last message repeated 1 times
[libopus @ 0x55e1bf550400] Queue input is backward in time bitrate= 986.2kbits/s speed=0.41x    
[libopus @ 0x55e1bf550400] Queue input is backward in time bitrate=1191.8kbits/s speed=0.483x    
    Last message repeated 3 times
[libopus @ 0x55e1bf550400] Queue input is backward in time bitrate= 955.6kbits/s speed=0.576x    
[libopus @ 0x55e1bf550400] Queue input is backward in time bitrate=1028.0kbits/s speed=0.683x    
    Last message repeated 2 times
[libopus @ 0x55e1bf550400] Queue input is backward in time bitrate= 876.6kbits/s speed=0.768x    
    Last message repeated 1 times
[libopus @ 0x55e1bf550400] Queue input is backward in time bitrate= 793.3kbits/s speed=0.783x    
[libopus @ 0x55e1bf550400] Queue input is backward in time bitrate= 765.8kbits/s speed=0.748x    
[libopus @ 0x55e1bf550400] Queue input is backward in time bitrate= 697.2kbits/s speed=0.666x    
[libopus @ 0x55e1bf550400] Queue input is backward in time bitrate= 689.8kbits/s speed=0.655x    
[libopus @ 0x55e1bf550400] Queue input is backward in time bitrate=1007.4kbits/s speed=0.634x    
[libopus @ 0x55e1bf550400] Queue input is backward in time bitrate=1112.7kbits/s speed=0.597x    
[libopus @ 0x55e1bf550400] Queue input is backward in time bitrate=1075.5kbits/s speed=0.575x    
[libopus @ 0x55e1bf550400] Queue input is backward in time bitrate=1188.5kbits/s speed=0.567x    
[libopus @ 0x55e1bf550400] Queue input is backward in time bitrate=1309.4kbits/s speed=0.55x     
[libopus @ 0x55e1bf550400] Queue input is backward in time bitrate=1402.4kbits/s speed=0.542x    
[libopus @ 0x55e1bf550400] Queue input is backward in time bitrate=1375.1kbits/s speed=0.531x    
[libopus @ 0x55e1bf550400] Queue input is backward in time bitrate=1428.8kbits/s speed=0.54x    
[libopus @ 0x55e1bf550400] Queue input is backward in time bitrate=1530.4kbits/s speed=0.54x    
[libopus @ 0x55e1bf550400] Queue input is backward in time bitrate=1487.5kbits/s speed=0.545x    
    Last message repeated 1 times
[libopus @ 0x55e1bf550400] Queue input is backward in time bitrate=1566.2kbits/s speed=0.551x    
[libopus @ 0x55e1bf550400] Queue input is backward in time bitrate=1518.3kbits/s speed=0.559x    
    Last message repeated 1 times
[libopus @ 0x55e1bf550400] Queue input is backward in time bitrate=1674.0kbits/s speed=0.576x    
[libopus @ 0x55e1bf550400] Queue input is backward in time bitrate=1750.6kbits/s speed=0.578x    
[libopus @ 0x55e1bf550400] Queue input is backward in time bitrate=1809.4kbits/s speed=0.586x    
    Last message repeated 2 times
[libopus @ 0x55e1bf550400] Queue input is backward in time bitrate=1841.5kbits/s speed= 0.6x    
[libopus @ 0x55e1bf550400] Queue input is backward in time bitrate=1886.1kbits/s speed=0.608x    
[libopus @ 0x55e1bf550400] Queue input is backward in time bitrate=1841.7kbits/s speed=0.614x    
[libopus @ 0x55e1bf550400] Queue input is backward in time bitrate=1807.0kbits/s speed=0.615x    
[libopus @ 0x55e1bf550400] Queue input is backward in time bitrate=1787.5kbits/s speed=0.613x    
[libopus @ 0x55e1bf550400] Queue input is backward in time bitrate=1717.2kbits/s speed=0.63x    
[libopus @ 0x55e1bf550400] Queue input is backward in time bitrate=1773.9kbits/s speed=0.665x    
[libopus @ 0x55e1bf550400] Queue input is backward in time bitrate=1672.9kbits/s speed=0.695x    
    Last message repeated 1 times
frame=  673 fps= 17 q=0.0 Lsize=    5931kB time=00:00:28.03 bitrate=1733.5kbits/s speed=0.725x    
video:5678kB audio:238kB subtitle:0kB other streams:0kB global headers:0kB muxing overhead: 0.265810%
Checking padding in test-v.webm (result: test-v-cut.webm)
ffmpeg version 4.4.2-0ubuntu0.22.04.1 Copyright (c) 2000-2021 the FFmpeg developers
  built with gcc 11 (Ubuntu 11.2.0-19ubuntu1)
  configuration: --prefix=/usr --extra-version=0ubuntu0.22.04.1 --toolchain=hardened --libdir=/usr/lib/x86_64-linux-gnu --incdir=/usr/include/x86_64-linux-gnu --arch=amd64 --enable-gpl --disable-stripping --enable-gnutls --enable-ladspa --enable-libaom --enable-libass --enable-libbluray --enable-libbs2b --enable-libcaca --enable-libcdio --enable-libcodec2 --enable-libdav1d --enable-libflite --enable-libfontconfig --enable-libfreetype --enable-libfribidi --enable-libgme --enable-libgsm --enable-libjack --enable-libmp3lame --enable-libmysofa --enable-libopenjpeg --enable-libopenmpt --enable-libopus --enable-libpulse --enable-librabbitmq --enable-librubberband --enable-libshine --enable-libsnappy --enable-libsoxr --enable-libspeex --enable-libsrt --enable-libssh --enable-libtheora --enable-libtwolame --enable-libvidstab --enable-libvorbis --enable-libvpx --enable-libwebp --enable-libx265 --enable-libxml2 --enable-libxvid --enable-libzimg --enable-libzmq --enable-libzvbi --enable-lv2 --enable-omx --enable-openal --enable-opencl --enable-opengl --enable-sdl2 --enable-pocketsphinx --enable-librsvg --enable-libmfx --enable-libdc1394 --enable-libdrm --enable-libiec61883 --enable-chromaprint --enable-frei0r --enable-libx264 --enable-shared
  libavutil      56. 70.100 / 56. 70.100
  libavcodec     58.134.100 / 58.134.100
  libavformat    58. 76.100 / 58. 76.100
  libavdevice    58. 13.100 / 58. 13.100
  libavfilter     7.110.100 /  7.110.100
  libswscale      5.  9.100 /  5.  9.100
  libswresample   3.  9.100 /  3.  9.100
  libpostproc    55.  9.100 / 55.  9.100
Input #0, matroska,webm, from 'test-v.webm':
  Metadata:
    ENCODER         : Lavf58.76.100
  Duration: 00:00:40.05, start: -0.006000, bitrate: 222 kb/s
  Stream #0:0(eng): Video: vp9 (Profile 0), yuv420p(tv, bt470bg/bt709/bt709, progressive), 1280x720, SAR 1:1 DAR 16:9, 24 fps, 24 tbr, 1k tbn, 1k tbc (default)
    Metadata:
      ALPHA_MODE      : 1
      ENCODER         : Lavc58.134.100 libvpx-vp9
      DURATION        : 00:00:34.917000000
  Stream #0:1(eng): Audio: opus, 48000 Hz, mono, fltp (default)
    Metadata:
      ENCODER         : Lavc58.134.100 libopus
      DURATION        : 00:00:40.045000000
Stream mapping:
  Stream #0:0 -> #0:0 (vp9 (native) -> mjpeg (native))
Press [q] to stop, [?] for help
[swscaler @ 0x56416a2dd800] deprecated pixel format used, make sure you did set range correctly
Output #0, image2, to 'jpg/%04d-v.jpg':
  Metadata:
    encoder         : Lavf58.76.100
  Stream #0:0(eng): Video: mjpeg, yuvj420p(pc, bt470bg/bt709/bt709, progressive), 1280x720 [SAR 1:1 DAR 16:9], q=2-31, 200 kb/s, 24 fps, 24 tbn (default)
    Metadata:
      ALPHA_MODE      : 1
      DURATION        : 00:00:34.917000000
      encoder         : Lavc58.134.100 mjpeg
    Side data:
      cpb: bitrate max/min/avg: 0/0/200000 buffer size: 0 vbv_delay: N/A
frame=  838 fps=296 q=24.8 Lsize=N/A time=00:00:34.91 bitrate=N/A dup=2 drop=0 speed=12.3x    
video:14402kB audio:0kB subtitle:0kB other streams:0kB global headers:0kB muxing overhead: unknown
Cutting test-v.webm from frame 0165 to 0838
ffmpeg version 4.4.2-0ubuntu0.22.04.1 Copyright (c) 2000-2021 the FFmpeg developers
  built with gcc 11 (Ubuntu 11.2.0-19ubuntu1)
  configuration: --prefix=/usr --extra-version=0ubuntu0.22.04.1 --toolchain=hardened --libdir=/usr/lib/x86_64-linux-gnu --incdir=/usr/include/x86_64-linux-gnu --arch=amd64 --enable-gpl --disable-stripping --enable-gnutls --enable-ladspa --enable-libaom --enable-libass --enable-libbluray --enable-libbs2b --enable-libcaca --enable-libcdio --enable-libcodec2 --enable-libdav1d --enable-libflite --enable-libfontconfig --enable-libfreetype --enable-libfribidi --enable-libgme --enable-libgsm --enable-libjack --enable-libmp3lame --enable-libmysofa --enable-libopenjpeg --enable-libopenmpt --enable-libopus --enable-libpulse --enable-librabbitmq --enable-librubberband --enable-libshine --enable-libsnappy --enable-libsoxr --enable-libspeex --enable-libsrt --enable-libssh --enable-libtheora --enable-libtwolame --enable-libvidstab --enable-libvorbis --enable-libvpx --enable-libwebp --enable-libx265 --enable-libxml2 --enable-libxvid --enable-libzimg --enable-libzmq --enable-libzvbi --enable-lv2 --enable-omx --enable-openal --enable-opencl --enable-opengl --enable-sdl2 --enable-pocketsphinx --enable-librsvg --enable-libmfx --enable-libdc1394 --enable-libdrm --enable-libiec61883 --enable-chromaprint --enable-frei0r --enable-libx264 --enable-shared
  libavutil      56. 70.100 / 56. 70.100
  libavcodec     58.134.100 / 58.134.100
  libavformat    58. 76.100 / 58. 76.100
  libavdevice    58. 13.100 / 58. 13.100
  libavfilter     7.110.100 /  7.110.100
  libswscale      5.  9.100 /  5.  9.100
  libswresample   3.  9.100 /  3.  9.100
  libpostproc    55.  9.100 / 55.  9.100
Input #0, matroska,webm, from 'test-v.webm':
  Metadata:
    ENCODER         : Lavf58.76.100
  Duration: 00:00:40.05, start: -0.006000, bitrate: 222 kb/s
  Stream #0:0(eng): Video: vp9 (Profile 0), yuv420p(tv, bt470bg/bt709/bt709, progressive), 1280x720, SAR 1:1 DAR 16:9, 24 fps, 24 tbr, 1k tbn, 1k tbc (default)
    Metadata:
      ALPHA_MODE      : 1
      ENCODER         : Lavc58.134.100 libvpx-vp9
      DURATION        : 00:00:34.917000000
  Stream #0:1(eng): Audio: opus, 48000 Hz, mono, fltp (default)
    Metadata:
      ENCODER         : Lavc58.134.100 libopus
      DURATION        : 00:00:40.045000000
Stream mapping:
  Stream #0:0 -> #0:0 (vp9 (native) -> vp8 (libvpx))
  Stream #0:1 -> #0:1 (opus (native) -> opus (libopus))
Press [q] to stop, [?] for help
[libopus @ 0x55c4596fc400] No bit rate set. Defaulting to 64000 bps.
[libvpx @ 0x55c4596bdf40] v1.11.0
Output #0, webm, to 'test-v-cut.webm':
  Metadata:
    encoder         : Lavf58.76.100
  Stream #0:0(eng): Video: vp8, yuv420p(tv, bt470bg/bt709/bt709, progressive), 1280x720 [SAR 1:1 DAR 16:9], q=2-31, 3000 kb/s, 24 fps, 1k tbn (default)
    Metadata:
      ALPHA_MODE      : 1
      DURATION        : 00:00:34.917000000
      encoder         : Lavc58.134.100 libvpx
    Side data:
      cpb: bitrate max/min/avg: 0/0/0 buffer size: 0 vbv_delay: N/A
  Stream #0:1(eng): Audio: opus, 48000 Hz, mono, flt, 64 kb/s (default)
    Metadata:
      DURATION        : 00:00:40.045000000
      encoder         : Lavc58.134.100 libopus
[libopus @ 0x55c4596fc400] Queue input is backward in time bitrate=  20.3kbits/s speed=5.14x    
[libopus @ 0x55c4596fc400] Queue input is backward in time bitrate=  10.4kbits/s speed=0.526x    
[libopus @ 0x55c4596fc400] Queue input is backward in time bitrate= 743.8kbits/s speed=0.364x    
[libopus @ 0x55c4596fc400] Queue input is backward in time bitrate= 659.1kbits/s speed=0.364x    
[libopus @ 0x55c4596fc400] Queue input is backward in time bitrate= 853.2kbits/s speed=0.36x     
[libopus @ 0x55c4596fc400] Queue input is backward in time bitrate= 637.8kbits/s speed=0.349x    
[libopus @ 0x55c4596fc400] Queue input is backward in time bitrate=1093.4kbits/s speed=0.345x    
[libopus @ 0x55c4596fc400] Queue input is backward in time bitrate= 998.2kbits/s speed=0.341x    
[libopus @ 0x55c4596fc400] Queue input is backward in time bitrate=1279.5kbits/s speed=0.325x    
[libopus @ 0x55c4596fc400] Queue input is backward in time bitrate=1119.3kbits/s speed=0.324x    
[libopus @ 0x55c4596fc400] Queue input is backward in time bitrate=1088.9kbits/s speed=0.323x    
[libopus @ 0x55c4596fc400] Queue input is backward in time bitrate=1056.3kbits/s speed=0.324x    
[libopus @ 0x55c4596fc400] Queue input is backward in time bitrate= 995.3kbits/s speed=0.324x    
[libopus @ 0x55c4596fc400] Queue input is backward in time bitrate= 795.0kbits/s speed=0.328x    
[libopus @ 0x55c4596fc400] Queue input is backward in time bitrate=1018.5kbits/s speed=0.326x    
[libopus @ 0x55c4596fc400] Queue input is backward in time bitrate= 992.0kbits/s speed=0.328x    
[libopus @ 0x55c4596fc400] Queue input is backward in time bitrate= 906.9kbits/s speed=0.329x    
[libopus @ 0x55c4596fc400] Queue input is backward in time bitrate= 867.5kbits/s speed=0.33x     
[libopus @ 0x55c4596fc400] Queue input is backward in time bitrate= 822.6kbits/s speed=0.33x     
[libopus @ 0x55c4596fc400] Queue input is backward in time bitrate= 790.3kbits/s speed=0.331x    
[libopus @ 0x55c4596fc400] Queue input is backward in time bitrate= 763.3kbits/s speed=0.331x    
[libopus @ 0x55c4596fc400] Queue input is backward in time bitrate= 697.2kbits/s speed=0.332x    
[libopus @ 0x55c4596fc400] Queue input is backward in time bitrate= 688.7kbits/s speed=0.331x    
[libopus @ 0x55c4596fc400] Queue input is backward in time bitrate= 680.3kbits/s speed=0.331x    
[libopus @ 0x55c4596fc400] Queue input is backward in time bitrate=1126.2kbits/s speed=0.344x    
[libopus @ 0x55c4596fc400] Queue input is backward in time bitrate=1101.2kbits/s speed=0.347x    
[libopus @ 0x55c4596fc400] Queue input is backward in time bitrate=1191.9kbits/s speed=0.362x    
[libopus @ 0x55c4596fc400] Queue input is backward in time bitrate=1313.9kbits/s speed=0.364x    
[libopus @ 0x55c4596fc400] Queue input is backward in time bitrate=1269.0kbits/s speed=0.372x    
[libopus @ 0x55c4596fc400] Queue input is backward in time bitrate=1334.9kbits/s speed=0.388x    
[libopus @ 0x55c4596fc400] Queue input is backward in time bitrate=1412.3kbits/s speed=0.399x    
    Last message repeated 2 times
[libopus @ 0x55c4596fc400] Queue input is backward in time bitrate=1472.8kbits/s speed=0.412x    
    Last message repeated 1 times
[libopus @ 0x55c4596fc400] Queue input is backward in time bitrate=1539.7kbits/s speed=0.422x    
[libopus @ 0x55c4596fc400] Queue input is backward in time bitrate=1486.9kbits/s speed=0.432x    
    Last message repeated 1 times
[libopus @ 0x55c4596fc400] Queue input is backward in time bitrate=1754.3kbits/s speed=0.445x    
[libopus @ 0x55c4596fc400] Queue input is backward in time bitrate=1816.8kbits/s speed=0.45x    
[libopus @ 0x55c4596fc400] Queue input is backward in time bitrate=1760.5kbits/s speed=0.459x    
    Last message repeated 2 times
[libopus @ 0x55c4596fc400] Queue input is backward in time bitrate=1861.2kbits/s speed=0.48x    
    Last message repeated 2 times
[libopus @ 0x55c4596fc400] Queue input is backward in time bitrate=1784.3kbits/s speed=0.495x    
[libopus @ 0x55c4596fc400] Queue input is backward in time bitrate=1711.6kbits/s speed=0.509x    
[libopus @ 0x55c4596fc400] Queue input is backward in time bitrate=1785.8kbits/s speed=0.533x    
[libopus @ 0x55c4596fc400] Queue input is backward in time bitrate=1672.9kbits/s speed=0.563x    
    Last message repeated 1 times
frame=  673 fps= 14 q=0.0 Lsize=    5931kB time=00:00:28.03 bitrate=1733.5kbits/s speed=0.587x    
video:5678kB audio:238kB subtitle:0kB other streams:0kB global headers:0kB muxing overhead: 0.265810%
Aligning test-p-cut.webm based on frame OCR recognition
ffmpeg version 4.4.2-0ubuntu0.22.04.1 Copyright (c) 2000-2021 the FFmpeg developers
  built with gcc 11 (Ubuntu 11.2.0-19ubuntu1)
  configuration: --prefix=/usr --extra-version=0ubuntu0.22.04.1 --toolchain=hardened --libdir=/usr/lib/x86_64-linux-gnu --incdir=/usr/include/x86_64-linux-gnu --arch=amd64 --enable-gpl --disable-stripping --enable-gnutls --enable-ladspa --enable-libaom --enable-libass --enable-libbluray --enable-libbs2b --enable-libcaca --enable-libcdio --enable-libcodec2 --enable-libdav1d --enable-libflite --enable-libfontconfig --enable-libfreetype --enable-libfribidi --enable-libgme --enable-libgsm --enable-libjack --enable-libmp3lame --enable-libmysofa --enable-libopenjpeg --enable-libopenmpt --enable-libopus --enable-libpulse --enable-librabbitmq --enable-librubberband --enable-libshine --enable-libsnappy --enable-libsoxr --enable-libspeex --enable-libsrt --enable-libssh --enable-libtheora --enable-libtwolame --enable-libvidstab --enable-libvorbis --enable-libvpx --enable-libwebp --enable-libx265 --enable-libxml2 --enable-libxvid --enable-libzimg --enable-libzmq --enable-libzvbi --enable-lv2 --enable-omx --enable-openal --enable-opencl --enable-opengl --enable-sdl2 --enable-pocketsphinx --enable-librsvg --enable-libmfx --enable-libdc1394 --enable-libdrm --enable-libiec61883 --enable-chromaprint --enable-frei0r --enable-libx264 --enable-shared
  libavutil      56. 70.100 / 56. 70.100
  libavcodec     58.134.100 / 58.134.100
  libavformat    58. 76.100 / 58. 76.100
  libavdevice    58. 13.100 / 58. 13.100
  libavfilter     7.110.100 /  7.110.100
  libswscale      5.  9.100 /  5.  9.100
  libswresample   3.  9.100 /  3.  9.100
  libpostproc    55.  9.100 / 55.  9.100
Input #0, matroska,webm, from 'test-p-cut.webm':
  Metadata:
    ENCODER         : Lavf58.76.100
  Duration: 00:00:28.05, start: -0.007000, bitrate: 1732 kb/s
  Stream #0:0(eng): Video: vp8, yuv420p(tv, bt470bg/bt709/bt709, progressive), 1280x720, SAR 1:1 DAR 16:9, 24 fps, 24 tbr, 1k tbn, 1k tbc (default)
    Metadata:
      ALPHA_MODE      : 1
      ENCODER         : Lavc58.134.100 libvpx
      DURATION        : 00:00:28.049000000
  Stream #0:1(eng): Audio: opus, 48000 Hz, mono, fltp (default)
    Metadata:
      ENCODER         : Lavc58.134.100 libopus
      DURATION        : 00:00:28.049000000
Stream mapping:
  Stream #0:0 -> #0:0 (vp8 (native) -> mjpeg (native))
Press [q] to stop, [?] for help
[swscaler @ 0x55fdf18da6c0] deprecated pixel format used, make sure you did set range correctly
Output #0, image2, to 'jpg/%04d.jpg':
  Metadata:
    encoder         : Lavf58.76.100
  Stream #0:0(eng): Video: mjpeg, yuvj420p(pc, bt470bg/bt709/bt709, progressive), 1280x720 [SAR 1:1 DAR 16:9], q=2-31, 200 kb/s, 24 fps, 24 tbn (default)
    Metadata:
      ALPHA_MODE      : 1
      DURATION        : 00:00:28.049000000
      encoder         : Lavc58.134.100 mjpeg
    Side data:
      cpb: bitrate max/min/avg: 0/0/200000 buffer size: 0 vbv_delay: N/A
frame=  673 fps=332 q=2.0 Lsize=N/A time=00:00:28.04 bitrate=N/A speed=13.8x    
video:34933kB audio:0kB subtitle:0kB other streams:0kB global headers:0kB muxing overhead: unknown
<!--ERROR 576--><!--ERROR 576-->  trying pxH-fix by Hxp -31 -30   0   1
#       fixed by Hxp to   33   1  31  32
#  trying pxH-fix by Hxp -31 -30   0   1
#       fixed by Hxp to   33   1  31  32
#  trying pxH-fix by Hxp -31 -30   0   1
#       fixed by Hxp to   33   1  31  32
#  trying pxH-fix by Hxp -31 -30   0   1
#       fixed by Hxp to   33   1  31  32
#  trying pxH-fix by Hxp -31 -30   0   1
#       fixed by Hxp to   33   1  31  32
#<!--ERROR 576-->  trying pxH-fix by Hxp -32 -31   0   1
#       fixed by Hxp to   35   1  32  33
#  trying pxH-fix by Hxp -32 -31   0   1
#       fixed by Hxp to   35   1  32  33
#  trying pxH-fix by Hxp -32 -31   0   1
#       fixed by Hxp to   35   1  32  33
#  trying pxH-fix by Hxp -32 -31   0   1
#       fixed by Hxp to   34   1  32  33
#Number of frames skipped in test-p-ocr.webm: 677
Number of frames not recognized by OCR in test-p-ocr.webm: 627
ffmpeg version 4.4.2-0ubuntu0.22.04.1 Copyright (c) 2000-2021 the FFmpeg developers
  built with gcc 11 (Ubuntu 11.2.0-19ubuntu1)
  configuration: --prefix=/usr --extra-version=0ubuntu0.22.04.1 --toolchain=hardened --libdir=/usr/lib/x86_64-linux-gnu --incdir=/usr/include/x86_64-linux-gnu --arch=amd64 --enable-gpl --disable-stripping --enable-gnutls --enable-ladspa --enable-libaom --enable-libass --enable-libbluray --enable-libbs2b --enable-libcaca --enable-libcdio --enable-libcodec2 --enable-libdav1d --enable-libflite --enable-libfontconfig --enable-libfreetype --enable-libfribidi --enable-libgme --enable-libgsm --enable-libjack --enable-libmp3lame --enable-libmysofa --enable-libopenjpeg --enable-libopenmpt --enable-libopus --enable-libpulse --enable-librabbitmq --enable-librubberband --enable-libshine --enable-libsnappy --enable-libsoxr --enable-libspeex --enable-libsrt --enable-libssh --enable-libtheora --enable-libtwolame --enable-libvidstab --enable-libvorbis --enable-libvpx --enable-libwebp --enable-libx265 --enable-libxml2 --enable-libxvid --enable-libzimg --enable-libzmq --enable-libzvbi --enable-lv2 --enable-omx --enable-openal --enable-opencl --enable-opengl --enable-sdl2 --enable-pocketsphinx --enable-librsvg --enable-libmfx --enable-libdc1394 --enable-libdrm --enable-libiec61883 --enable-chromaprint --enable-frei0r --enable-libx264 --enable-shared
  libavutil      56. 70.100 / 56. 70.100
  libavcodec     58.134.100 / 58.134.100
  libavformat    58. 76.100 / 58. 76.100
  libavdevice    58. 13.100 / 58. 13.100
  libavfilter     7.110.100 /  7.110.100
  libswscale      5.  9.100 /  5.  9.100
  libswresample   3.  9.100 /  3.  9.100
  libpostproc    55.  9.100 / 55.  9.100
Input #0, image2, from 'jpg/cut/%04d.jpg':
  Duration: 00:00:30.00, start: 0.000000, bitrate: N/A
  Stream #0:0: Video: mjpeg (Baseline), yuvj420p(pc, bt470bg/unknown/unknown), 1280x720 [SAR 1:1 DAR 16:9], 24 fps, 24 tbr, 24 tbn, 24 tbc
Stream mapping:
  Stream #0:0 -> #0:0 (mjpeg (native) -> vp9 (libvpx-vp9))
Press [q] to stop, [?] for help
[swscaler @ 0x555ea1945400] deprecated pixel format used, make sure you did set range correctly
[libvpx-vp9 @ 0x555ea14401c0] v1.11.0
[libvpx-vp9 @ 0x555ea14401c0] Neither bitrate nor constrained quality specified, using default CRF of 32
Output #0, webm, to 'test-p-ocr.webm':
  Metadata:
    encoder         : Lavf58.76.100
  Stream #0:0: Video: vp9, yuv420p(tv, bt470bg/unknown/unknown, progressive), 1280x720 [SAR 1:1 DAR 16:9], q=2-31, 24 fps, 1k tbn
    Metadata:
      encoder         : Lavc58.134.100 libvpx-vp9
    Side data:
      cpb: bitrate max/min/avg: 0/0/0 buffer size: 0 vbv_delay: N/A
frame=  720 fps= 33 q=0.0 Lsize=     237kB time=00:00:29.95 bitrate=  64.8kbits/s speed=1.38x    
video:232kB audio:0kB subtitle:0kB other streams:0kB global headers:0kB muxing overhead: 2.128286%
Aligning test-v-cut.webm based on frame OCR recognition
ffmpeg version 4.4.2-0ubuntu0.22.04.1 Copyright (c) 2000-2021 the FFmpeg developers
  built with gcc 11 (Ubuntu 11.2.0-19ubuntu1)
  configuration: --prefix=/usr --extra-version=0ubuntu0.22.04.1 --toolchain=hardened --libdir=/usr/lib/x86_64-linux-gnu --incdir=/usr/include/x86_64-linux-gnu --arch=amd64 --enable-gpl --disable-stripping --enable-gnutls --enable-ladspa --enable-libaom --enable-libass --enable-libbluray --enable-libbs2b --enable-libcaca --enable-libcdio --enable-libcodec2 --enable-libdav1d --enable-libflite --enable-libfontconfig --enable-libfreetype --enable-libfribidi --enable-libgme --enable-libgsm --enable-libjack --enable-libmp3lame --enable-libmysofa --enable-libopenjpeg --enable-libopenmpt --enable-libopus --enable-libpulse --enable-librabbitmq --enable-librubberband --enable-libshine --enable-libsnappy --enable-libsoxr --enable-libspeex --enable-libsrt --enable-libssh --enable-libtheora --enable-libtwolame --enable-libvidstab --enable-libvorbis --enable-libvpx --enable-libwebp --enable-libx265 --enable-libxml2 --enable-libxvid --enable-libzimg --enable-libzmq --enable-libzvbi --enable-lv2 --enable-omx --enable-openal --enable-opencl --enable-opengl --enable-sdl2 --enable-pocketsphinx --enable-librsvg --enable-libmfx --enable-libdc1394 --enable-libdrm --enable-libiec61883 --enable-chromaprint --enable-frei0r --enable-libx264 --enable-shared
  libavutil      56. 70.100 / 56. 70.100
  libavcodec     58.134.100 / 58.134.100
  libavformat    58. 76.100 / 58. 76.100
  libavdevice    58. 13.100 / 58. 13.100
  libavfilter     7.110.100 /  7.110.100
  libswscale      5.  9.100 /  5.  9.100
  libswresample   3.  9.100 /  3.  9.100
  libpostproc    55.  9.100 / 55.  9.100
Input #0, matroska,webm, from 'test-v-cut.webm':
  Metadata:
    ENCODER         : Lavf58.76.100
  Duration: 00:00:28.05, start: -0.007000, bitrate: 1732 kb/s
  Stream #0:0(eng): Video: vp8, yuv420p(tv, bt470bg/bt709/bt709, progressive), 1280x720, SAR 1:1 DAR 16:9, 24 fps, 24 tbr, 1k tbn, 1k tbc (default)
    Metadata:
      ALPHA_MODE      : 1
      ENCODER         : Lavc58.134.100 libvpx
      DURATION        : 00:00:28.049000000
  Stream #0:1(eng): Audio: opus, 48000 Hz, mono, fltp (default)
    Metadata:
      ENCODER         : Lavc58.134.100 libopus
      DURATION        : 00:00:28.049000000
Stream mapping:
  Stream #0:0 -> #0:0 (vp8 (native) -> mjpeg (native))
Press [q] to stop, [?] for help
[swscaler @ 0x56064b8f36c0] deprecated pixel format used, make sure you did set range correctly
Output #0, image2, to 'jpg/%04d.jpg':
  Metadata:
    encoder         : Lavf58.76.100
  Stream #0:0(eng): Video: mjpeg, yuvj420p(pc, bt470bg/bt709/bt709, progressive), 1280x720 [SAR 1:1 DAR 16:9], q=2-31, 200 kb/s, 24 fps, 24 tbn (default)
    Metadata:
      ALPHA_MODE      : 1
      DURATION        : 00:00:28.049000000
      encoder         : Lavc58.134.100 mjpeg
    Side data:
      cpb: bitrate max/min/avg: 0/0/200000 buffer size: 0 vbv_delay: N/A
frame=  673 fps=364 q=2.0 Lsize=N/A time=00:00:28.04 bitrate=N/A speed=15.1x    
video:34933kB audio:0kB subtitle:0kB other streams:0kB global headers:0kB muxing overhead: unknown
<!--ERROR 576--><!--ERROR 576-->  trying pxH-fix by Hxp -31 -30   0   1
#       fixed by Hxp to   33   1  31  32
#  trying pxH-fix by Hxp -31 -30   0   1
#       fixed by Hxp to   33   1  31  32
#  trying pxH-fix by Hxp -31 -30   0   1
#       fixed by Hxp to   33   1  31  32
#  trying pxH-fix by Hxp -31 -30   0   1
#       fixed by Hxp to   33   1  31  32
#  trying pxH-fix by Hxp -31 -30   0   1
#       fixed by Hxp to   33   1  31  32
#<!--ERROR 576-->  trying pxH-fix by Hxp -32 -31   0   1
#       fixed by Hxp to   35   1  32  33
#  trying pxH-fix by Hxp -32 -31   0   1
#       fixed by Hxp to   35   1  32  33
#  trying pxH-fix by Hxp -32 -31   0   1
#       fixed by Hxp to   35   1  32  33
#  trying pxH-fix by Hxp -32 -31   0   1
#       fixed by Hxp to   34   1  32  33
#Number of frames skipped in test-v-ocr.webm: 677
Number of frames not recognized by OCR in test-v-ocr.webm: 627
ffmpeg version 4.4.2-0ubuntu0.22.04.1 Copyright (c) 2000-2021 the FFmpeg developers
  built with gcc 11 (Ubuntu 11.2.0-19ubuntu1)
  configuration: --prefix=/usr --extra-version=0ubuntu0.22.04.1 --toolchain=hardened --libdir=/usr/lib/x86_64-linux-gnu --incdir=/usr/include/x86_64-linux-gnu --arch=amd64 --enable-gpl --disable-stripping --enable-gnutls --enable-ladspa --enable-libaom --enable-libass --enable-libbluray --enable-libbs2b --enable-libcaca --enable-libcdio --enable-libcodec2 --enable-libdav1d --enable-libflite --enable-libfontconfig --enable-libfreetype --enable-libfribidi --enable-libgme --enable-libgsm --enable-libjack --enable-libmp3lame --enable-libmysofa --enable-libopenjpeg --enable-libopenmpt --enable-libopus --enable-libpulse --enable-librabbitmq --enable-librubberband --enable-libshine --enable-libsnappy --enable-libsoxr --enable-libspeex --enable-libsrt --enable-libssh --enable-libtheora --enable-libtwolame --enable-libvidstab --enable-libvorbis --enable-libvpx --enable-libwebp --enable-libx265 --enable-libxml2 --enable-libxvid --enable-libzimg --enable-libzmq --enable-libzvbi --enable-lv2 --enable-omx --enable-openal --enable-opencl --enable-opengl --enable-sdl2 --enable-pocketsphinx --enable-librsvg --enable-libmfx --enable-libdc1394 --enable-libdrm --enable-libiec61883 --enable-chromaprint --enable-frei0r --enable-libx264 --enable-shared
  libavutil      56. 70.100 / 56. 70.100
  libavcodec     58.134.100 / 58.134.100
  libavformat    58. 76.100 / 58. 76.100
  libavdevice    58. 13.100 / 58. 13.100
  libavfilter     7.110.100 /  7.110.100
  libswscale      5.  9.100 /  5.  9.100
  libswresample   3.  9.100 /  3.  9.100
  libpostproc    55.  9.100 / 55.  9.100
Input #0, image2, from 'jpg/cut/%04d.jpg':
  Duration: 00:00:30.00, start: 0.000000, bitrate: N/A
  Stream #0:0: Video: mjpeg (Baseline), yuvj420p(pc, bt470bg/unknown/unknown), 1280x720 [SAR 1:1 DAR 16:9], 24 fps, 24 tbr, 24 tbn, 24 tbc
Stream mapping:
  Stream #0:0 -> #0:0 (mjpeg (native) -> vp9 (libvpx-vp9))
Press [q] to stop, [?] for help
[swscaler @ 0x55eb82a98400] deprecated pixel format used, make sure you did set range correctly
[libvpx-vp9 @ 0x55eb825931c0] v1.11.0
[libvpx-vp9 @ 0x55eb825931c0] Neither bitrate nor constrained quality specified, using default CRF of 32
Output #0, webm, to 'test-v-ocr.webm':
  Metadata:
    encoder         : Lavf58.76.100
  Stream #0:0: Video: vp9, yuv420p(tv, bt470bg/unknown/unknown, progressive), 1280x720 [SAR 1:1 DAR 16:9], q=2-31, 24 fps, 1k tbn
    Metadata:
      encoder         : Lavc58.134.100 libvpx-vp9
    Side data:
      cpb: bitrate max/min/avg: 0/0/0 buffer size: 0 vbv_delay: N/A
frame=  720 fps= 33 q=0.0 Lsize=     237kB time=00:00:29.95 bitrate=  64.8kbits/s speed=1.39x    
video:232kB audio:0kB subtitle:0kB other streams:0kB global headers:0kB muxing overhead: 2.128286%
Converting test-p-ocr.webm to test-p.yuv (yuv420p profile)
ffmpeg version 4.4.2-0ubuntu0.22.04.1 Copyright (c) 2000-2021 the FFmpeg developers
  built with gcc 11 (Ubuntu 11.2.0-19ubuntu1)
  configuration: --prefix=/usr --extra-version=0ubuntu0.22.04.1 --toolchain=hardened --libdir=/usr/lib/x86_64-linux-gnu --incdir=/usr/include/x86_64-linux-gnu --arch=amd64 --enable-gpl --disable-stripping --enable-gnutls --enable-ladspa --enable-libaom --enable-libass --enable-libbluray --enable-libbs2b --enable-libcaca --enable-libcdio --enable-libcodec2 --enable-libdav1d --enable-libflite --enable-libfontconfig --enable-libfreetype --enable-libfribidi --enable-libgme --enable-libgsm --enable-libjack --enable-libmp3lame --enable-libmysofa --enable-libopenjpeg --enable-libopenmpt --enable-libopus --enable-libpulse --enable-librabbitmq --enable-librubberband --enable-libshine --enable-libsnappy --enable-libsoxr --enable-libspeex --enable-libsrt --enable-libssh --enable-libtheora --enable-libtwolame --enable-libvidstab --enable-libvorbis --enable-libvpx --enable-libwebp --enable-libx265 --enable-libxml2 --enable-libxvid --enable-libzimg --enable-libzmq --enable-libzvbi --enable-lv2 --enable-omx --enable-openal --enable-opencl --enable-opengl --enable-sdl2 --enable-pocketsphinx --enable-librsvg --enable-libmfx --enable-libdc1394 --enable-libdrm --enable-libiec61883 --enable-chromaprint --enable-frei0r --enable-libx264 --enable-shared
  libavutil      56. 70.100 / 56. 70.100
  libavcodec     58.134.100 / 58.134.100
  libavformat    58. 76.100 / 58. 76.100
  libavdevice    58. 13.100 / 58. 13.100
  libavfilter     7.110.100 /  7.110.100
  libswscale      5.  9.100 /  5.  9.100
  libswresample   3.  9.100 /  3.  9.100
  libpostproc    55.  9.100 / 55.  9.100
Input #0, matroska,webm, from 'test-p-ocr.webm':
  Metadata:
    ENCODER         : Lavf58.76.100
  Duration: 00:00:30.00, start: 0.000000, bitrate: 64 kb/s
  Stream #0:0: Video: vp9 (Profile 0), yuv420p(tv, bt470bg/unknown/unknown, progressive), 1280x720, SAR 1:1 DAR 16:9, 24 fps, 24 tbr, 1k tbn, 1k tbc (default)
    Metadata:
      ENCODER         : Lavc58.134.100 libvpx-vp9
      DURATION        : 00:00:30.000000000
Stream mapping:
  Stream #0:0 -> #0:0 (vp9 (native) -> rawvideo (native))
Press [q] to stop, [?] for help
Output #0, rawvideo, to 'test-p.yuv':
  Metadata:
    encoder         : Lavf58.76.100
  Stream #0:0: Video: rawvideo (I420 / 0x30323449), yuv420p(tv, bt470bg/unknown/unknown, progressive), 1280x720 [SAR 1:1 DAR 16:9], q=2-31, 265420 kb/s, 24 fps, 24 tbn (default)
    Metadata:
      DURATION        : 00:00:30.000000000
      encoder         : Lavc58.134.100 rawvideo
frame=  720 fps=0.0 q=-0.0 Lsize=  972000kB time=00:00:30.00 bitrate=265420.8kbits/s speed=39.7x    
video:972000kB audio:0kB subtitle:0kB other streams:0kB global headers:0kB muxing overhead: 0.000000%
Converting test-v-ocr.webm to test-v.yuv (yuv420p profile)
ffmpeg version 4.4.2-0ubuntu0.22.04.1 Copyright (c) 2000-2021 the FFmpeg developers
  built with gcc 11 (Ubuntu 11.2.0-19ubuntu1)
  configuration: --prefix=/usr --extra-version=0ubuntu0.22.04.1 --toolchain=hardened --libdir=/usr/lib/x86_64-linux-gnu --incdir=/usr/include/x86_64-linux-gnu --arch=amd64 --enable-gpl --disable-stripping --enable-gnutls --enable-ladspa --enable-libaom --enable-libass --enable-libbluray --enable-libbs2b --enable-libcaca --enable-libcdio --enable-libcodec2 --enable-libdav1d --enable-libflite --enable-libfontconfig --enable-libfreetype --enable-libfribidi --enable-libgme --enable-libgsm --enable-libjack --enable-libmp3lame --enable-libmysofa --enable-libopenjpeg --enable-libopenmpt --enable-libopus --enable-libpulse --enable-librabbitmq --enable-librubberband --enable-libshine --enable-libsnappy --enable-libsoxr --enable-libspeex --enable-libsrt --enable-libssh --enable-libtheora --enable-libtwolame --enable-libvidstab --enable-libvorbis --enable-libvpx --enable-libwebp --enable-libx265 --enable-libxml2 --enable-libxvid --enable-libzimg --enable-libzmq --enable-libzvbi --enable-lv2 --enable-omx --enable-openal --enable-opencl --enable-opengl --enable-sdl2 --enable-pocketsphinx --enable-librsvg --enable-libmfx --enable-libdc1394 --enable-libdrm --enable-libiec61883 --enable-chromaprint --enable-frei0r --enable-libx264 --enable-shared
  libavutil      56. 70.100 / 56. 70.100
  libavcodec     58.134.100 / 58.134.100
  libavformat    58. 76.100 / 58. 76.100
  libavdevice    58. 13.100 / 58. 13.100
  libavfilter     7.110.100 /  7.110.100
  libswscale      5.  9.100 /  5.  9.100
  libswresample   3.  9.100 /  3.  9.100
  libpostproc    55.  9.100 / 55.  9.100
Input #0, matroska,webm, from 'test-v-ocr.webm':
  Metadata:
    ENCODER         : Lavf58.76.100
  Duration: 00:00:30.00, start: 0.000000, bitrate: 64 kb/s
  Stream #0:0: Video: vp9 (Profile 0), yuv420p(tv, bt470bg/unknown/unknown, progressive), 1280x720, SAR 1:1 DAR 16:9, 24 fps, 24 tbr, 1k tbn, 1k tbc (default)
    Metadata:
      ENCODER         : Lavc58.134.100 libvpx-vp9
      DURATION        : 00:00:30.000000000
Stream mapping:
  Stream #0:0 -> #0:0 (vp9 (native) -> rawvideo (native))
Press [q] to stop, [?] for help
Output #0, rawvideo, to 'test-v.yuv':
  Metadata:
    encoder         : Lavf58.76.100
  Stream #0:0: Video: rawvideo (I420 / 0x30323449), yuv420p(tv, bt470bg/unknown/unknown, progressive), 1280x720 [SAR 1:1 DAR 16:9], q=2-31, 265420 kb/s, 24 fps, 24 tbn (default)
    Metadata:
      DURATION        : 00:00:30.000000000
      encoder         : Lavc58.134.100 rawvideo
frame=  720 fps=0.0 q=-0.0 Lsize=  972000kB time=00:00:30.00 bitrate=265420.8kbits/s speed=43.7x    
video:972000kB audio:0kB subtitle:0kB other streams:0kB global headers:0kB muxing overhead: 0.000000%
Calculating VMAF
INFO:__init__:/home/ohzahata-qoe/Documents/GitHub/vmaf/libvmaf/build/tools/vmaf --reference /home/ohzahata-qoe/Documents/GitHub/elastest-webrtc-qoe-meter/scripts/test-p.yuv --distorted /home/ohzahata-qoe/Documents/GitHub/elastest-webrtc-qoe-meter/scripts/test-v.yuv --width 1280 --height 720 --pixel_format 420 --bitdepth 8 --output /home/ohzahata-qoe/Documents/GitHub/vmaf/workspace/workdir/77e5f829-3552-435a-8c4d-ac7f58574191/VMAF_integer_feature_V0.2.7_d4b40779e58de179f4007bcf4c247f19dad8e081 --xml --no_prediction --feature adm=debug=true --feature vif=debug=true --feature motion=debug=true --feature float_ansnr
*** Process finished OK. Check CSV results at current folder ***